<svg id="Layer_1" enable-background="new 0 0 512 512" height="512" viewBox="0 0 512 512" width="512" xmlns="http://www.w3.org/2000/svg"><g><path d="m416.667 80.333h-321.334c-8.284 0-15 6.716-15 15v321.334c0 8.284 6.716 15 15 15h321.334c8.284 0 15-6.716 15-15v-321.334c0-8.284-6.716-15-15-15zm-285.121 321.333 124.454-124.453 124.454 124.453zm270.121-21.213-60.188-60.187 60.188-60.187zm0-162.8-81.4 81.4-53.66-53.66c-5.857-5.858-15.355-5.858-21.213 0l-135.061 135.06v-270.12h291.334z"/><path d="m183.7 230.833c25.989 0 47.133-21.144 47.133-47.133s-21.144-47.133-47.133-47.133-47.134 21.144-47.134 47.133 21.145 47.133 47.134 47.133zm0-64.266c9.447 0 17.133 7.686 17.133 17.133s-7.686 17.133-17.133 17.133-17.134-7.686-17.134-17.133 7.687-17.133 17.134-17.133z"/><path d="m500.68 94.893c-3.378-3.378-3.378-8.854 0-12.232 15.093-15.093 15.094-39.564 0-54.658l-17.805-17.805-.017.039c-15.162-13.992-38.798-13.636-53.518 1.084-3.378 3.378-8.854 3.378-12.232 0-15.093-15.093-39.564-15.093-54.658 0-3.378 3.378-8.854 3.378-12.232 0-15.093-15.093-39.564-15.093-54.658 0-3.378 3.378-8.854 3.378-12.232 0-15.093-15.093-39.564-15.093-54.658 0-3.378 3.378-8.854 3.378-12.232 0-15.094-15.093-39.564-15.093-54.658 0-3.378 3.378-8.854 3.378-12.232 0-15.093-15.093-39.564-15.093-54.658 0-3.378 3.378-8.854 3.378-12.232 0-14.717-14.722-38.355-15.078-53.516-1.084l-.017-.039-18.927 18.927.039.017c-13.994 15.161-13.638 38.799 1.083 53.519 3.378 3.378 3.378 8.854 0 12.232-15.093 15.093-15.093 39.564 0 54.658 3.378 3.378 3.378 8.854 0 12.232-15.093 15.093-15.093 39.564 0 54.658 3.378 3.378 3.378 8.854 0 12.232-15.093 15.093-15.093 39.564 0 54.658 3.378 3.378 3.378 8.854 0 12.232-15.093 15.093-15.093 39.564 0 54.658 3.378 3.378 3.378 8.854 0 12.232-15.093 15.093-15.093 39.564 0 54.658 3.378 3.378 3.378 8.854 0 12.232-14.72 14.72-15.077 38.356-1.084 53.517l-.039.018 17.805 17.805c15.093 15.093 39.564 15.093 54.658 0 3.378-3.378 8.854-3.378 12.232 0 15.093 15.093 39.564 15.093 54.658 0 3.378-3.378 8.854-3.378 12.232 0 15.093 15.093 39.564 15.093 54.658 0 3.378-3.378 8.854-3.378 12.232 0 15.093 15.093 39.564 15.093 54.658 0 3.378-3.378 8.854-3.378 12.232 0 15.093 15.093 39.564 15.093 54.658 0 3.378-3.378 8.854-3.378 12.232 0 15.093 15.093 39.564 15.093 54.658 0 3.378-3.378 8.854-3.378 12.232 0 15.093 15.093 39.564 15.093 54.658 0l16.681-16.681c15.093-15.093 15.093-39.564 0-54.658-3.378-3.378-3.378-8.854 0-12.232 15.093-15.093 15.093-39.564 0-54.658-3.378-3.378-3.378-8.854 0-12.232 15.093-15.093 15.093-39.564 0-54.658-3.378-3.378-3.378-8.854 0-12.232 15.093-15.093 15.093-39.564 0-54.658-3.378-3.378-3.378-8.854 0-12.232 15.093-15.094 15.093-39.564 0-54.658-3.378-3.378-3.378-8.854 0-12.232 15.092-15.095 15.092-39.566-.001-54.659zm-21.213 21.213c3.378 3.378 3.378 8.854 0 12.232-15.093 15.094-15.093 39.564 0 54.658 3.378 3.378 3.378 8.854 0 12.232-15.093 15.093-15.093 39.564 0 54.658 3.378 3.378 3.378 8.854 0 12.232-15.093 15.093-15.093 39.564 0 54.658 3.378 3.378 3.378 8.854 0 12.232-15.093 15.093-15.093 39.564 0 54.658 3.378 3.378 3.378 8.854 0 12.232-15.093 15.093-15.093 39.564 0 54.658 3.378 3.378 3.378 8.854 0 12.232l-16.681 16.681c-3.378 3.378-8.854 3.378-12.232 0-15.093-15.093-39.564-15.093-54.658 0-3.378 3.378-8.854 3.378-12.232 0-15.093-15.093-39.564-15.093-54.658 0-3.378 3.378-8.854 3.378-12.232 0-15.093-15.093-39.564-15.093-54.658 0-3.378 3.378-8.854 3.378-12.232 0-15.093-15.093-39.564-15.093-54.658 0-3.378 3.378-8.854 3.378-12.232 0-15.093-15.093-39.564-15.093-54.658 0-3.378 3.378-8.854 3.378-12.232 0-15.093-15.093-39.564-15.093-54.658 0-3.378 3.378-8.854 3.378-12.232 0l-16.682-16.682c-3.378-3.378-3.378-8.854 0-12.232 15.093-15.093 15.093-39.564 0-54.658-3.378-3.378-3.378-8.854 0-12.232 15.093-15.093 15.093-39.564 0-54.658-3.378-3.378-3.378-8.854 0-12.232 15.093-15.093 15.093-39.564 0-54.658-3.378-3.378-3.378-8.854 0-12.232 15.093-15.093 15.093-39.564 0-54.658-3.378-3.378-3.378-8.854 0-12.232 15.093-15.093 15.093-39.564 0-54.658-3.378-3.378-3.378-8.854 0-12.232 15.093-15.093 15.093-39.564 0-54.658-3.378-3.378-3.378-8.854 0-12.232l16.684-16.684c3.378-3.378 8.854-3.378 12.232 0 15.093 15.093 39.564 15.093 54.658 0 3.378-3.378 8.854-3.378 12.232 0 15.094 15.093 39.564 15.093 54.658 0 3.378-3.378 8.854-3.378 12.232 0 15.093 15.093 39.564 15.093 54.658 0 3.378-3.378 8.854-3.378 12.232 0 15.093 15.093 39.564 15.093 54.658 0 3.378-3.378 8.854-3.378 12.232 0 15.093 15.093 39.564 15.093 54.658 0 3.378-3.378 8.854-3.378 12.232 0 15.093 15.093 39.564 15.093 54.658 0 3.378-3.378 8.854-3.378 12.232 0l16.682 16.682c3.378 3.378 3.378 8.854 0 12.232-15.097 15.097-15.097 39.568-.003 54.661z"/></g></svg>